<svg width="999" height="289" viewBox="0 0 999 289" fill="none" xmlns="http://www.w3.org/2000/svg">
<rect x="163.274" y="46.4299" width="43" height="43" rx="21.5" transform="rotate(128.64 163.274 46.4299)" fill="#BBBF34"/>
<path d="M29.0446 141.774C46.6773 82.5176 63.1178 64.3 113.136 52.6287C113.929 52.4437 114.591 51.8619 114.857 51.0921C115.438 49.4075 114 47.7181 112.247 48.04C62.2031 57.2325 37.6553 83.8928 24.0576 140.479C23.6489 142.179 25.0256 143.79 26.7685 143.645C27.8329 143.556 28.74 142.798 29.0446 141.774Z" fill="#BBBF34"/>
<path d="M142.557 45.9442H137.58C137.489 45.3002 137.303 44.7283 137.023 44.2283C136.742 43.7207 136.383 43.2889 135.943 42.9328C135.504 42.5768 134.996 42.304 134.42 42.1146C133.852 41.9252 133.235 41.8305 132.568 41.8305C131.364 41.8305 130.314 42.1298 129.42 42.7283C128.527 43.3192 127.833 44.1828 127.341 45.3192C126.848 46.448 126.602 47.8192 126.602 49.4328C126.602 51.0919 126.848 52.4858 127.341 53.6146C127.841 54.7434 128.538 55.5957 129.432 56.1714C130.326 56.7472 131.36 57.0351 132.534 57.0351C133.193 57.0351 133.803 56.948 134.364 56.7737C134.932 56.5995 135.436 56.3457 135.875 56.0124C136.314 55.6714 136.678 55.2586 136.966 54.7737C137.261 54.2889 137.466 53.7358 137.58 53.1146L142.557 53.1374C142.428 54.2055 142.106 55.2358 141.591 56.2283C141.083 57.2131 140.398 58.0957 139.534 58.876C138.678 59.6487 137.655 60.2624 136.466 60.7169C135.284 61.1639 133.947 61.3874 132.455 61.3874C130.379 61.3874 128.523 60.9177 126.886 59.9783C125.258 59.0389 123.97 57.679 123.023 55.8987C122.083 54.1184 121.614 51.9631 121.614 49.4328C121.614 46.8949 122.091 44.7358 123.045 42.9555C124 41.1752 125.295 39.8192 126.932 38.8874C128.568 37.948 130.409 37.4783 132.455 37.4783C133.803 37.4783 135.053 37.6677 136.205 38.0464C137.364 38.4252 138.39 38.9783 139.284 39.7055C140.178 40.4252 140.905 41.3078 141.466 42.3533C142.034 43.3987 142.398 44.5957 142.557 45.9442Z" fill="#F2F2F2"/>
<rect x="13.2109" y="173.497" width="43" height="43" rx="21.5" transform="rotate(8.7699 13.2109 173.497)" fill="#9AA641"/>
<path d="M25.0341 208.069L19.7614 208.069L27.7955 184.796L34.1364 184.796L42.1591 208.069L36.8864 208.069L31.0568 190.115L30.875 190.115L25.0341 208.069ZM24.7045 198.921L37.1591 198.921L37.1591 202.762L24.7045 202.762L24.7045 198.921Z" fill="#F2F2F2"/>
<path d="M186.802 250.377C116.228 274.702 85.1097 265.471 43.8185 213.977C42.8652 212.788 41.1623 212.455 39.8556 213.239C38.3758 214.127 37.9473 216.092 38.9202 217.517C75.9721 271.799 120.324 282.381 188.945 256.102C190.798 255.393 191.497 253.117 190.352 251.496C189.563 250.378 188.097 249.931 186.802 250.377Z" fill="#9AA641"/>
<rect x="224.648" y="229.815" width="43" height="43" rx="21.5" transform="rotate(-118.969 224.648 229.815)" fill="#D4D9B4"/>
<path d="M235.943 188.727V212H231.023V188.727H235.943Z" fill="#F2F2F2"/>
<path d="M187.011 66.9297C232.347 102.922 242.78 128.76 236.397 180.835C236.253 182.005 236.947 183.137 238.065 183.51C239.445 183.97 240.927 183.124 241.231 181.701C252.23 130.163 236.288 94.8279 189.998 62.8144C188.589 61.8401 186.635 62.5197 186.133 64.1574C185.824 65.166 186.185 66.2738 187.011 66.9297Z" fill="#D4D9B4"/>
<path d="M327.908 103.591H319.198C319.039 102.465 318.714 101.464 318.223 100.589C317.733 99.7004 317.103 98.9447 316.334 98.3216C315.565 97.6985 314.677 97.2212 313.669 96.8898C312.675 96.5583 311.595 96.3926 310.428 96.3926C308.32 96.3926 306.484 96.9163 304.919 97.9636C303.355 98.9977 302.142 100.509 301.28 102.498C300.418 104.473 299.988 106.873 299.988 109.697C299.988 112.6 300.418 115.039 301.28 117.015C302.155 118.99 303.375 120.482 304.939 121.489C306.504 122.497 308.313 123.001 310.368 123.001C311.522 123.001 312.589 122.848 313.57 122.543C314.564 122.238 315.446 121.794 316.215 121.211C316.984 120.614 317.62 119.892 318.124 119.043C318.641 118.195 318.999 117.227 319.198 116.14L327.908 116.18C327.683 118.049 327.119 119.852 326.218 121.589C325.329 123.312 324.13 124.857 322.618 126.222C321.12 127.574 319.33 128.648 317.249 129.444C315.181 130.226 312.841 130.617 310.229 130.617C306.596 130.617 303.348 129.795 300.485 128.151C297.634 126.507 295.381 124.127 293.723 121.012C292.079 117.896 291.257 114.125 291.257 109.697C291.257 105.255 292.093 101.477 293.763 98.3614C295.434 95.2458 297.701 92.8727 300.564 91.242C303.428 89.5981 306.65 88.7761 310.229 88.7761C312.589 88.7761 314.776 89.1076 316.792 89.7705C318.82 90.4333 320.616 91.4011 322.181 92.6739C323.745 93.9333 325.018 95.4778 325.999 97.3074C326.993 99.1369 327.63 101.232 327.908 103.591ZM347.725 130.657C344.636 130.657 341.964 130.001 339.711 128.688C337.47 127.362 335.74 125.52 334.52 123.16C333.301 120.787 332.691 118.036 332.691 114.907C332.691 111.752 333.301 108.994 334.52 106.634C335.74 104.261 337.47 102.418 339.711 101.106C341.964 99.7799 344.636 99.117 347.725 99.117C350.814 99.117 353.479 99.7799 355.719 101.106C357.973 102.418 359.71 104.261 360.929 106.634C362.149 108.994 362.759 111.752 362.759 114.907C362.759 118.036 362.149 120.787 360.929 123.16C359.71 125.52 357.973 127.362 355.719 128.688C353.479 130.001 350.814 130.657 347.725 130.657ZM347.765 124.094C349.17 124.094 350.343 123.697 351.284 122.901C352.226 122.092 352.935 120.992 353.412 119.6C353.903 118.208 354.148 116.624 354.148 114.847C354.148 113.071 353.903 111.486 353.412 110.094C352.935 108.702 352.226 107.602 351.284 106.793C350.343 105.984 349.17 105.58 347.765 105.58C346.346 105.58 345.153 105.984 344.185 106.793C343.23 107.602 342.508 108.702 342.017 110.094C341.54 111.486 341.301 113.071 341.301 114.847C341.301 116.624 341.54 118.208 342.017 119.6C342.508 120.992 343.23 122.092 344.185 122.901C345.153 123.697 346.346 124.094 347.765 124.094ZM368.267 130.06V99.5148H376.341V104.904H376.699C377.336 103.114 378.396 101.702 379.881 100.668C381.366 99.6341 383.142 99.117 385.211 99.117C387.305 99.117 389.088 99.6407 390.56 100.688C392.032 101.722 393.013 103.127 393.503 104.904H393.821C394.444 103.154 395.571 101.755 397.202 100.708C398.846 99.6473 400.788 99.117 403.029 99.117C405.879 99.117 408.193 100.025 409.969 101.841C411.759 103.645 412.654 106.203 412.654 109.518V130.06H404.202V111.188C404.202 109.491 403.751 108.218 402.85 107.37C401.948 106.521 400.821 106.097 399.469 106.097C397.931 106.097 396.731 106.588 395.87 107.569C395.008 108.537 394.577 109.816 394.577 111.407V130.06H386.364V111.009C386.364 109.511 385.933 108.318 385.071 107.43C384.223 106.541 383.103 106.097 381.711 106.097C380.769 106.097 379.921 106.336 379.165 106.813C378.423 107.277 377.833 107.933 377.395 108.782C376.958 109.617 376.739 110.598 376.739 111.725V130.06H368.267ZM419.346 141.515V99.5148H427.698V104.645H428.076C428.447 103.823 428.984 102.988 429.686 102.14C430.402 101.278 431.33 100.562 432.471 99.992C433.624 99.4087 435.056 99.117 436.766 99.117C438.993 99.117 441.048 99.7004 442.931 100.867C444.813 102.02 446.318 103.764 447.445 106.097C448.572 108.417 449.135 111.327 449.135 114.827C449.135 118.234 448.585 121.111 447.485 123.458C446.398 125.791 444.913 127.561 443.03 128.768C441.161 129.961 439.066 130.557 436.746 130.557C435.102 130.557 433.703 130.286 432.55 129.742C431.41 129.198 430.475 128.516 429.746 127.694C429.017 126.859 428.46 126.017 428.076 125.168H427.817V141.515H419.346ZM427.638 114.787C427.638 116.604 427.89 118.188 428.394 119.54C428.898 120.893 429.627 121.947 430.581 122.702C431.536 123.445 432.696 123.816 434.061 123.816C435.44 123.816 436.607 123.438 437.561 122.682C438.516 121.913 439.239 120.853 439.729 119.501C440.233 118.135 440.485 116.564 440.485 114.787C440.485 113.024 440.239 111.473 439.749 110.134C439.258 108.795 438.536 107.748 437.581 106.992C436.627 106.236 435.453 105.859 434.061 105.859C432.683 105.859 431.516 106.223 430.561 106.952C429.62 107.681 428.898 108.716 428.394 110.055C427.89 111.394 427.638 112.971 427.638 114.787ZM463.255 89.333V130.06H454.783V89.333H463.255ZM483.961 130.657C480.819 130.657 478.115 130.02 475.848 128.748C473.594 127.462 471.857 125.645 470.637 123.299C469.418 120.939 468.808 118.148 468.808 114.927C468.808 111.785 469.418 109.027 470.637 106.654C471.857 104.281 473.574 102.431 475.788 101.106C478.015 99.7799 480.627 99.117 483.623 99.117C485.638 99.117 487.514 99.4419 489.251 100.091C491.001 100.728 492.526 101.689 493.825 102.975C495.137 104.261 496.158 105.878 496.887 107.827C497.617 109.763 497.981 112.03 497.981 114.628V116.955H472.189V111.705H490.007C490.007 110.485 489.742 109.405 489.211 108.464C488.681 107.522 487.945 106.787 487.004 106.256C486.076 105.713 484.995 105.441 483.762 105.441C482.476 105.441 481.336 105.739 480.342 106.336C479.361 106.919 478.592 107.708 478.035 108.702C477.478 109.683 477.193 110.777 477.18 111.984V116.975C477.18 118.486 477.458 119.792 478.015 120.893C478.585 121.993 479.387 122.841 480.422 123.438C481.456 124.035 482.682 124.333 484.1 124.333C485.042 124.333 485.904 124.2 486.686 123.935C487.468 123.67 488.137 123.272 488.694 122.742C489.251 122.212 489.675 121.562 489.967 120.793L497.802 121.31C497.404 123.193 496.589 124.837 495.356 126.242C494.136 127.634 492.559 128.721 490.623 129.503C488.701 130.272 486.48 130.657 483.961 130.657ZM519.757 99.5148V105.878H501.362V99.5148H519.757ZM505.538 92.1966H514.01V120.674C514.01 121.456 514.129 122.066 514.368 122.503C514.606 122.928 514.938 123.226 515.362 123.398C515.799 123.571 516.303 123.657 516.873 123.657C517.271 123.657 517.669 123.624 518.066 123.557C518.464 123.478 518.769 123.418 518.981 123.378L520.314 129.682C519.889 129.815 519.293 129.967 518.524 130.14C517.755 130.325 516.82 130.438 515.72 130.478C513.678 130.557 511.888 130.286 510.35 129.662C508.826 129.039 507.639 128.072 506.791 126.759C505.942 125.447 505.525 123.789 505.538 121.787V92.1966ZM538.868 130.657C535.725 130.657 533.021 130.02 530.754 128.748C528.5 127.462 526.763 125.645 525.544 123.299C524.324 120.939 523.714 118.148 523.714 114.927C523.714 111.785 524.324 109.027 525.544 106.654C526.763 104.281 528.48 102.431 530.694 101.106C532.922 99.7799 535.533 99.117 538.529 99.117C540.545 99.117 542.421 99.4419 544.157 100.091C545.907 100.728 547.432 101.689 548.731 102.975C550.044 104.261 551.065 105.878 551.794 107.827C552.523 109.763 552.887 112.03 552.887 114.628V116.955H527.095V111.705H544.913C544.913 110.485 544.648 109.405 544.118 108.464C543.587 107.522 542.851 106.787 541.91 106.256C540.982 105.713 539.902 105.441 538.669 105.441C537.383 105.441 536.243 105.739 535.248 106.336C534.267 106.919 533.498 107.708 532.941 108.702C532.385 109.683 532.1 110.777 532.086 111.984V116.975C532.086 118.486 532.365 119.792 532.922 120.893C533.492 121.993 534.294 122.841 535.328 123.438C536.362 124.035 537.588 124.333 539.007 124.333C539.948 124.333 540.81 124.2 541.592 123.935C542.374 123.67 543.044 123.272 543.6 122.742C544.157 122.212 544.582 121.562 544.873 120.793L552.708 121.31C552.311 123.193 551.495 124.837 550.262 126.242C549.043 127.634 547.465 128.721 545.529 129.503C543.607 130.272 541.386 130.657 538.868 130.657ZM580.147 89.333V130.06H571.536V89.333H580.147ZM595.544 112.401V130.06H587.072V99.5148H595.146V104.904H595.504C596.18 103.127 597.314 101.722 598.904 100.688C600.495 99.6407 602.424 99.117 604.691 99.117C606.813 99.117 608.662 99.5811 610.24 100.509C611.817 101.437 613.044 102.763 613.919 104.486C614.794 106.197 615.231 108.238 615.231 110.611V130.06H606.76V112.123C606.773 110.253 606.296 108.795 605.328 107.748C604.36 106.687 603.028 106.157 601.331 106.157C600.19 106.157 599.183 106.402 598.308 106.893C597.446 107.383 596.77 108.099 596.279 109.04C595.802 109.968 595.557 111.089 595.544 112.401ZM647.323 108.225L639.567 108.702C639.435 108.039 639.15 107.443 638.712 106.912C638.275 106.369 637.698 105.938 636.982 105.62C636.279 105.288 635.437 105.123 634.456 105.123C633.144 105.123 632.037 105.401 631.135 105.958C630.234 106.502 629.783 107.231 629.783 108.145C629.783 108.875 630.075 109.491 630.658 109.995C631.241 110.499 632.242 110.903 633.661 111.208L639.189 112.322C642.159 112.931 644.373 113.912 645.831 115.265C647.29 116.617 648.019 118.394 648.019 120.594C648.019 122.596 647.429 124.353 646.249 125.864C645.082 127.376 643.478 128.555 641.436 129.404C639.408 130.239 637.068 130.657 634.417 130.657C630.373 130.657 627.151 129.815 624.752 128.131C622.365 126.434 620.967 124.127 620.556 121.211L628.888 120.773C629.14 122.006 629.75 122.948 630.718 123.597C631.685 124.234 632.925 124.552 634.436 124.552C635.921 124.552 637.114 124.267 638.016 123.697C638.931 123.113 639.395 122.364 639.408 121.449C639.395 120.68 639.07 120.051 638.434 119.56C637.797 119.056 636.816 118.672 635.49 118.407L630.201 117.353C627.218 116.756 624.997 115.722 623.539 114.251C622.094 112.779 621.371 110.903 621.371 108.623C621.371 106.661 621.901 104.97 622.962 103.552C624.036 102.133 625.541 101.039 627.476 100.27C629.425 99.5015 631.705 99.117 634.317 99.117C638.175 99.117 641.211 99.9324 643.425 101.563C645.652 103.194 646.952 105.414 647.323 108.225ZM672.941 117.055V99.5148H681.413V130.06H673.279V124.512H672.961C672.272 126.302 671.125 127.74 669.521 128.827C667.93 129.914 665.988 130.458 663.694 130.458C661.653 130.458 659.856 129.994 658.305 129.066C656.754 128.138 655.541 126.819 654.666 125.109C653.804 123.398 653.367 121.35 653.353 118.964V99.5148H661.825V117.452C661.838 119.255 662.322 120.68 663.277 121.728C664.231 122.775 665.511 123.299 667.115 123.299C668.136 123.299 669.09 123.067 669.978 122.603C670.867 122.126 671.583 121.423 672.126 120.495C672.683 119.567 672.955 118.42 672.941 117.055ZM688.189 130.06V99.5148H696.402V104.844H696.721C697.277 102.948 698.212 101.517 699.525 100.549C700.837 99.5678 702.348 99.0773 704.059 99.0773C704.483 99.0773 704.94 99.1038 705.431 99.1568C705.921 99.2098 706.352 99.2828 706.723 99.3756V106.893C706.326 106.773 705.775 106.667 705.073 106.574C704.37 106.482 703.727 106.435 703.144 106.435C701.898 106.435 700.784 106.707 699.803 107.251C698.835 107.781 698.066 108.523 697.496 109.478C696.939 110.432 696.661 111.533 696.661 112.779V130.06H688.189ZM718.939 130.637C716.99 130.637 715.253 130.299 713.728 129.623C712.204 128.933 710.997 127.919 710.109 126.58C709.234 125.228 708.797 123.544 708.797 121.529C708.797 119.832 709.108 118.407 709.731 117.253C710.354 116.1 711.203 115.172 712.277 114.469C713.35 113.767 714.57 113.236 715.936 112.878C717.315 112.52 718.76 112.269 720.271 112.123C722.047 111.937 723.479 111.765 724.566 111.606C725.654 111.433 726.442 111.181 726.933 110.85C727.423 110.519 727.669 110.028 727.669 109.378V109.259C727.669 108 727.271 107.025 726.475 106.336C725.693 105.646 724.58 105.302 723.135 105.302C721.61 105.302 720.397 105.64 719.495 106.316C718.594 106.979 717.997 107.814 717.706 108.822L709.87 108.185C710.268 106.329 711.05 104.725 712.217 103.373C713.384 102.007 714.888 100.96 716.731 100.231C718.587 99.4883 720.735 99.117 723.174 99.117C724.871 99.117 726.495 99.3159 728.047 99.7136C729.611 100.111 730.996 100.728 732.203 101.563C733.422 102.398 734.384 103.472 735.086 104.785C735.789 106.084 736.14 107.642 736.14 109.458V130.06H728.106V125.824H727.868C727.377 126.779 726.721 127.621 725.899 128.35C725.077 129.066 724.089 129.629 722.936 130.04C721.782 130.438 720.45 130.637 718.939 130.637ZM721.365 124.79C722.611 124.79 723.711 124.545 724.666 124.055C725.62 123.551 726.369 122.875 726.913 122.026C727.457 121.178 727.728 120.216 727.728 119.143V115.901C727.463 116.073 727.099 116.233 726.635 116.378C726.184 116.511 725.673 116.637 725.103 116.756C724.533 116.862 723.963 116.962 723.393 117.055C722.823 117.134 722.306 117.207 721.842 117.273C720.848 117.419 719.979 117.651 719.237 117.969C718.494 118.287 717.918 118.718 717.507 119.262C717.096 119.792 716.89 120.455 716.89 121.251C716.89 122.404 717.308 123.286 718.143 123.895C718.992 124.492 720.065 124.79 721.365 124.79ZM751.184 112.401V130.06H742.713V99.5148H750.787V104.904H751.145C751.821 103.127 752.954 101.722 754.545 100.688C756.136 99.6407 758.065 99.117 760.332 99.117C762.453 99.117 764.303 99.5811 765.88 100.509C767.458 101.437 768.684 102.763 769.559 104.486C770.434 106.197 770.872 108.238 770.872 110.611V130.06H762.4V112.123C762.413 110.253 761.936 108.795 760.968 107.748C760.001 106.687 758.668 106.157 756.971 106.157C755.831 106.157 754.824 106.402 753.949 106.893C753.087 107.383 752.411 108.099 751.92 109.04C751.443 109.968 751.198 111.089 751.184 112.401ZM791.35 130.657C788.221 130.657 785.53 129.994 783.276 128.668C781.035 127.329 779.312 125.473 778.105 123.1C776.912 120.727 776.316 117.996 776.316 114.907C776.316 111.778 776.919 109.034 778.125 106.674C779.345 104.301 781.075 102.451 783.316 101.126C785.556 99.7866 788.221 99.117 791.31 99.117C793.975 99.117 796.308 99.6009 798.31 100.569C800.312 101.537 801.896 102.895 803.063 104.645C804.23 106.395 804.873 108.45 804.992 110.81H796.998C796.772 109.286 796.176 108.059 795.208 107.131C794.253 106.19 793 105.719 791.449 105.719C790.137 105.719 788.99 106.077 788.009 106.793C787.041 107.496 786.285 108.523 785.742 109.876C785.198 111.228 784.926 112.865 784.926 114.787C784.926 116.736 785.192 118.394 785.722 119.759C786.266 121.125 787.028 122.165 788.009 122.881C788.99 123.597 790.137 123.955 791.449 123.955C792.417 123.955 793.285 123.756 794.054 123.359C794.837 122.961 795.48 122.384 795.983 121.628C796.5 120.859 796.838 119.938 796.998 118.864H804.992C804.859 121.198 804.223 123.252 803.083 125.029C801.956 126.792 800.398 128.171 798.409 129.165C796.421 130.16 794.068 130.657 791.35 130.657ZM824.336 130.657C821.194 130.657 818.49 130.02 816.223 128.748C813.969 127.462 812.232 125.645 811.012 123.299C809.793 120.939 809.183 118.148 809.183 114.927C809.183 111.785 809.793 109.027 811.012 106.654C812.232 104.281 813.949 102.431 816.163 101.106C818.39 99.7799 821.002 99.117 823.998 99.117C826.013 99.117 827.889 99.4419 829.626 100.091C831.376 100.728 832.901 101.689 834.2 102.975C835.512 104.261 836.533 105.878 837.262 107.827C837.992 109.763 838.356 112.03 838.356 114.628V116.955H812.564V111.705H830.382C830.382 110.485 830.117 109.405 829.586 108.464C829.056 107.522 828.32 106.787 827.379 106.256C826.451 105.713 825.37 105.441 824.137 105.441C822.851 105.441 821.711 105.739 820.717 106.336C819.736 106.919 818.967 107.708 818.41 108.702C817.853 109.683 817.568 110.777 817.555 111.984V116.975C817.555 118.486 817.833 119.792 818.39 120.893C818.96 121.993 819.762 122.841 820.797 123.438C821.831 124.035 823.057 124.333 824.475 124.333C825.417 124.333 826.279 124.2 827.061 123.935C827.843 123.67 828.512 123.272 829.069 122.742C829.626 122.212 830.05 121.562 830.342 120.793L838.177 121.31C837.779 123.193 836.964 124.837 835.731 126.242C834.511 127.634 832.934 128.721 830.998 129.503C829.076 130.272 826.855 130.657 824.336 130.657ZM298.993 198.06H289.766L303.826 157.333H314.922L328.962 198.06H319.735L309.533 166.64H309.215L298.993 198.06ZM298.417 182.052H320.212V188.773H298.417V182.052ZM343.539 198.557C341.219 198.557 339.117 197.961 337.235 196.768C335.365 195.561 333.881 193.791 332.78 191.458C331.693 189.111 331.15 186.234 331.15 182.827C331.15 179.327 331.713 176.417 332.84 174.097C333.967 171.764 335.465 170.02 337.334 168.867C339.217 167.7 341.278 167.117 343.519 167.117C345.229 167.117 346.654 167.409 347.794 167.992C348.948 168.562 349.876 169.278 350.578 170.14C351.294 170.988 351.838 171.823 352.209 172.645H352.468V157.333H360.919V198.06H352.567V193.168H352.209C351.811 194.017 351.248 194.859 350.519 195.694C349.803 196.516 348.868 197.198 347.715 197.742C346.575 198.286 345.183 198.557 343.539 198.557ZM346.223 191.816C347.589 191.816 348.742 191.445 349.684 190.702C350.638 189.947 351.367 188.893 351.871 187.54C352.388 186.188 352.647 184.604 352.647 182.787C352.647 180.971 352.395 179.394 351.891 178.055C351.387 176.716 350.658 175.681 349.703 174.952C348.749 174.223 347.589 173.859 346.223 173.859C344.831 173.859 343.658 174.236 342.703 174.992C341.749 175.748 341.026 176.795 340.536 178.134C340.045 179.473 339.8 181.024 339.8 182.787C339.8 184.564 340.045 186.135 340.536 187.501C341.04 188.853 341.762 189.913 342.703 190.682C343.658 191.438 344.831 191.816 346.223 191.816ZM396.362 167.515L385.683 198.06H376.137L365.458 167.515H374.407L380.751 189.37H381.069L387.393 167.515H396.362ZM400.697 198.06V167.515H409.169V198.06H400.697ZM404.953 163.577C403.693 163.577 402.613 163.16 401.711 162.324C400.823 161.476 400.379 160.462 400.379 159.282C400.379 158.115 400.823 157.114 401.711 156.279C402.613 155.43 403.693 155.006 404.953 155.006C406.212 155.006 407.286 155.43 408.174 156.279C409.076 157.114 409.527 158.115 409.527 159.282C409.527 160.462 409.076 161.476 408.174 162.324C407.286 163.16 406.212 163.577 404.953 163.577ZM441.37 176.225L433.614 176.702C433.481 176.039 433.196 175.443 432.759 174.912C432.321 174.369 431.745 173.938 431.029 173.62C430.326 173.288 429.484 173.123 428.503 173.123C427.191 173.123 426.084 173.401 425.182 173.958C424.281 174.502 423.83 175.231 423.83 176.145C423.83 176.875 424.122 177.491 424.705 177.995C425.288 178.499 426.289 178.903 427.708 179.208L433.236 180.322C436.206 180.931 438.42 181.912 439.878 183.265C441.337 184.617 442.066 186.394 442.066 188.594C442.066 190.596 441.476 192.353 440.296 193.864C439.129 195.376 437.525 196.555 435.483 197.404C433.455 198.239 431.115 198.657 428.463 198.657C424.42 198.657 421.198 197.815 418.799 196.131C416.412 194.434 415.014 192.127 414.603 189.211L422.935 188.773C423.187 190.006 423.797 190.948 424.765 191.597C425.732 192.234 426.972 192.552 428.483 192.552C429.968 192.552 431.161 192.267 432.063 191.697C432.978 191.113 433.442 190.364 433.455 189.449C433.442 188.68 433.117 188.051 432.48 187.56C431.844 187.056 430.863 186.672 429.537 186.407L424.248 185.353C421.265 184.756 419.044 183.722 417.586 182.251C416.141 180.779 415.418 178.903 415.418 176.623C415.418 174.661 415.948 172.97 417.009 171.552C418.083 170.133 419.587 169.039 421.523 168.27C423.472 167.502 425.752 167.117 428.364 167.117C432.222 167.117 435.258 167.932 437.472 169.563C439.699 171.194 440.998 173.414 441.37 176.225ZM461.321 198.657C458.179 198.657 455.474 198.02 453.207 196.748C450.953 195.462 449.217 193.645 447.997 191.299C446.777 188.939 446.167 186.148 446.167 182.927C446.167 179.785 446.777 177.027 447.997 174.654C449.217 172.281 450.933 170.431 453.147 169.106C455.375 167.78 457.986 167.117 460.983 167.117C462.998 167.117 464.874 167.442 466.61 168.091C468.36 168.728 469.885 169.689 471.184 170.975C472.497 172.261 473.518 173.878 474.247 175.827C474.976 177.763 475.341 180.03 475.341 182.628V184.955H449.548V179.705H467.366C467.366 178.485 467.101 177.405 466.571 176.464C466.04 175.522 465.305 174.787 464.363 174.256C463.435 173.713 462.355 173.441 461.122 173.441C459.836 173.441 458.696 173.739 457.701 174.336C456.72 174.919 455.951 175.708 455.395 176.702C454.838 177.683 454.553 178.777 454.539 179.984V184.975C454.539 186.486 454.818 187.792 455.375 188.893C455.945 189.993 456.747 190.841 457.781 191.438C458.815 192.035 460.041 192.333 461.46 192.333C462.401 192.333 463.263 192.2 464.045 191.935C464.827 191.67 465.497 191.272 466.054 190.742C466.61 190.212 467.035 189.562 467.326 188.793L475.162 189.31C474.764 191.193 473.949 192.837 472.716 194.242C471.496 195.634 469.918 196.721 467.983 197.503C466.06 198.272 463.84 198.657 461.321 198.657ZM480.869 198.06V167.515H489.082V172.844H489.4C489.957 170.948 490.892 169.517 492.204 168.549C493.517 167.568 495.028 167.077 496.738 167.077C497.163 167.077 497.62 167.104 498.11 167.157C498.601 167.21 499.032 167.283 499.403 167.376V174.893C499.005 174.773 498.455 174.667 497.752 174.574C497.05 174.482 496.407 174.435 495.824 174.435C494.577 174.435 493.464 174.707 492.483 175.251C491.515 175.781 490.746 176.523 490.176 177.478C489.619 178.432 489.341 179.533 489.341 180.779V198.06H480.869ZM529.198 176.225L521.442 176.702C521.31 176.039 521.025 175.443 520.587 174.912C520.15 174.369 519.573 173.938 518.857 173.62C518.154 173.288 517.312 173.123 516.331 173.123C515.019 173.123 513.912 173.401 513.01 173.958C512.109 174.502 511.658 175.231 511.658 176.145C511.658 176.875 511.95 177.491 512.533 177.995C513.116 178.499 514.117 178.903 515.536 179.208L521.064 180.322C524.034 180.931 526.248 181.912 527.706 183.265C529.165 184.617 529.894 186.394 529.894 188.594C529.894 190.596 529.304 192.353 528.124 193.864C526.957 195.376 525.353 196.555 523.311 197.404C521.283 198.239 518.943 198.657 516.292 198.657C512.248 198.657 509.026 197.815 506.627 196.131C504.24 194.434 502.842 192.127 502.431 189.211L510.763 188.773C511.015 190.006 511.625 190.948 512.593 191.597C513.56 192.234 514.8 192.552 516.311 192.552C517.796 192.552 518.989 192.267 519.891 191.697C520.806 191.113 521.27 190.364 521.283 189.449C521.27 188.68 520.945 188.051 520.309 187.56C519.672 187.056 518.691 186.672 517.365 186.407L512.076 185.353C509.093 184.756 506.872 183.722 505.414 182.251C503.969 180.779 503.246 178.903 503.246 176.623C503.246 174.661 503.776 172.97 504.837 171.552C505.911 170.133 507.416 169.039 509.351 168.27C511.3 167.502 513.58 167.117 516.192 167.117C520.05 167.117 523.086 167.932 525.3 169.563C527.527 171.194 528.827 173.414 529.198 176.225ZM582.414 157.333V198.06H574.976L557.257 172.427H556.959V198.06H548.348V157.333H555.905L573.485 182.947H573.843V157.333H582.414ZM611.622 169.046C611.463 167.442 610.78 166.196 609.574 165.307C608.367 164.419 606.73 163.975 604.662 163.975C603.256 163.975 602.07 164.174 601.102 164.572C600.134 164.956 599.392 165.493 598.875 166.182C598.371 166.872 598.119 167.654 598.119 168.529C598.092 169.258 598.245 169.895 598.576 170.438C598.921 170.982 599.392 171.452 599.988 171.85C600.585 172.234 601.274 172.573 602.056 172.864C602.839 173.143 603.674 173.381 604.562 173.58L608.221 174.455C609.998 174.853 611.628 175.383 613.113 176.046C614.598 176.709 615.884 177.524 616.971 178.492C618.058 179.46 618.9 180.6 619.497 181.912C620.107 183.225 620.418 184.73 620.431 186.427C620.418 188.919 619.782 191.08 618.522 192.91C617.276 194.726 615.473 196.138 613.113 197.145C610.767 198.14 607.936 198.637 604.622 198.637C601.334 198.637 598.47 198.133 596.031 197.126C593.605 196.118 591.709 194.627 590.343 192.651C588.991 190.662 588.282 188.203 588.216 185.273H596.548C596.641 186.639 597.032 187.779 597.721 188.694C598.424 189.595 599.359 190.278 600.525 190.742C601.705 191.193 603.038 191.418 604.522 191.418C605.981 191.418 607.247 191.206 608.321 190.782C609.408 190.358 610.25 189.768 610.846 189.012C611.443 188.256 611.741 187.388 611.741 186.407C611.741 185.492 611.469 184.723 610.926 184.1C610.395 183.477 609.613 182.947 608.579 182.509C607.558 182.072 606.306 181.674 604.821 181.316L600.386 180.202C596.952 179.367 594.241 178.061 592.252 176.285C590.264 174.508 589.276 172.115 589.289 169.106C589.276 166.64 589.932 164.485 591.258 162.643C592.597 160.8 594.433 159.361 596.767 158.327C599.1 157.293 601.752 156.776 604.721 156.776C607.744 156.776 610.382 157.293 612.636 158.327C614.903 159.361 616.666 160.8 617.926 162.643C619.185 164.485 619.835 166.62 619.875 169.046H611.622ZM635.391 198.06L623.738 157.333H633.144L639.885 185.631H640.223L647.661 157.333H655.715L663.132 185.691H663.49L670.232 157.333H679.638L667.985 198.06H659.593L651.837 171.432H651.519L643.783 198.06H635.391Z" fill="#9DA65D"/>
</svg>
